# xmcd
#
# Track frame offsets:
#  300
#  25885
#  37893
#  50562
#  67214
#  81623
#  104549
#  122873
#  142672
#  165173
#  192893
#  207813
#  218292
#  248159
#  261162
#
# Disc length: 3718 seconds
#
# Revision: 0
# Processed by: cddbd v1.5.1PL2 Copyright (c) Steve Scherf et al.
# Submitted via: Collectorz.com_Music_Collector 6.10
#
DISCID=d10e820f
DTITLE=Texas Bluesboys - The Playhouse
DYEAR=2006
DGENRE=Blues Texas Style
TTITLE0=Funny Bone
TTITLE1=Mean Jolene
TTITLE2=As Long As You Can Cook
TTITLE3=New Old Lady
TTITLE4=Sugar Tree
TTITLE5=What You Mean To Me
TTITLE6=I'll Drink To That
TTITLE7=Root Doctor
TTITLE8=Duck's Medley
TTITLE9=T-Bone Shuffle
TTITLE10=My Baby's Lawyer
TTITLE11=Little Willie
TTITLE12=Your Friends
TTITLE13=Tin Pan Alley
TTITLE14=San Jose
EXTD=
EXTT0=
EXTT1=
EXTT2=
EXTT3=
EXTT4=
EXTT5=
EXTT6=
EXTT7=
EXTT8=
EXTT9=
EXTT10=
EXTT11=
EXTT12=
EXTT13=
EXTT14=
PLAYORDER=
